# xmcd
#
# Track frame offsets:
#	150
#	18931
#	36972
#	55672
#	72178
#	89815
#	106653
#	122675
#	143905
#	160439
#	176655
#	197748
#
# Disc length: 2907 seconds
# Revision: 0
# Processed by: cddbd v1.5.2PL0 Copyright (c) Steve Scherf et al.
# Submitted via: dBpowerAMP V12.0
#
DISCID=a40b590c
DTITLE=Karen Nash - Halfway To Texas
DYEAR=1996
DGENRE=Country
TTITLE0=It Doesn't Look Like Rain
TTITLE1=Drug Store Rose
TTITLE2=The New Girl
TTITLE3=Halfway To Texas
TTITLE4=Sinking
TTITLE5=Somebody To Leave
TTITLE6=Is It Dark Enough?
TTITLE7=Robin's Diary
TTITLE8=Let's Talk About Us
TTITLE9=Leave Me Alone
TTITLE10=Didn't You Think Anybody Loved You?
TTITLE11=Broken White Lines
EXTD=
EXTT0=
EXTT1=
EXTT2=
EXTT3=
EXTT4=
EXTT5=
EXTT6=
EXTT7=
EXTT8=
EXTT9=
EXTT10=
EXTT11=
PLAYORDER=
